<svg width="24" height="24" viewBox="0 0 24 24" fill="none" xmlns="http://www.w3.org/2000/svg">
<path d="M21.7442 5.36444L21.2143 3.776C21.0125 3.17102 20.4483 2.76453 19.8108 2.76453H15.3571V1.31451C15.3571 0.589783 14.7678 0 14.0433 0H9.96481C9.24044 0 8.65103 0.589783 8.65103 1.31451V2.76453H4.19754C3.55978 2.76453 2.99563 3.17102 2.79385 3.776L2.26394 5.36444C2.14328 5.72607 2.20443 6.12653 2.42727 6.43579C2.65011 6.74506 3.01065 6.92981 3.39187 6.92981H3.94577L5.16488 22.0051C5.25552 23.1237 6.20474 24 7.32626 24H16.9292C18.0506 24 19 23.1237 19.0904 22.0049L20.3095 6.92981H20.6162C20.9975 6.92981 21.358 6.74506 21.5808 6.43597C21.8037 6.12671 21.8648 5.72607 21.7442 5.36444ZM10.0573 1.40625H13.9508V2.76453H10.0573V1.40625ZM17.6887 21.8915C17.6569 22.2854 17.3233 22.5938 16.9292 22.5938H7.32626C6.93222 22.5938 6.5986 22.2854 6.56674 21.8915L5.35659 6.92981H18.8987L17.6887 21.8915ZM3.69345 5.52356L4.12796 4.22095C4.13784 4.19092 4.16586 4.17078 4.19754 4.17078H19.8108C19.8424 4.17078 19.8703 4.19092 19.8803 4.22095L20.3148 5.52356H3.69345Z" fill="#EB5757"/>
<path d="M15.4478 21.8421C15.4603 21.8428 15.4725 21.843 15.485 21.843C15.8565 21.843 16.167 21.5519 16.1865 21.1765L16.8467 8.50156C16.8669 8.11375 16.5688 7.78287 16.1811 7.76273C15.7924 7.74204 15.4626 8.0405 15.4423 8.42832L14.7822 21.1032C14.7621 21.4911 15.06 21.8219 15.4478 21.8421Z" fill="#EB5757"/>
<path d="M7.85652 21.178C7.87703 21.5528 8.18721 21.8429 8.55799 21.8429C8.57081 21.8429 8.584 21.8425 8.597 21.8418C8.98463 21.8207 9.28181 21.4893 9.26075 21.1015L8.56916 8.42655C8.54811 8.03873 8.21669 7.74155 7.82887 7.76279C7.44124 7.78385 7.14406 8.11527 7.16512 8.50309L7.85652 21.178Z" fill="#EB5757"/>
<path d="M12.0117 21.8429C12.4001 21.8429 12.7148 21.5281 12.7148 21.1398V8.46484C12.7148 8.07648 12.4001 7.76172 12.0117 7.76172C11.6234 7.76172 11.3086 8.07648 11.3086 8.46484V21.1398C11.3086 21.5281 11.6234 21.8429 12.0117 21.8429Z" fill="#EB5757"/>
</svg>
