<svg width="24" height="24" viewBox="0 0 24 24" fill="none" xmlns="http://www.w3.org/2000/svg">
<g clip-path="url(#clip0_1_396)">
<path d="M19.2243 4.25313C15.8654 1.21867 10.68 1.32071 7.44307 4.55765L7.13923 4.87668C4.37984 7.93105 4.21472 12.4947 6.64136 15.7312L3.1217 19.2508C2.64442 19.7281 2.64387 20.5019 3.12101 20.9792C3.59836 21.4566 4.37276 21.4566 4.85011 20.9792L8.36907 17.4603C11.6056 19.8867 16.17 19.721 19.2243 16.9617L19.5433 16.6579C22.8848 13.3164 22.8848 7.89843 19.5433 4.55696L19.2243 4.25313ZM18.1291 5.97118C20.6895 8.53159 20.6895 12.6833 18.1291 15.2437C15.5686 17.8039 11.4176 17.8033 8.85728 15.243C6.29714 12.6826 6.29714 8.53223 8.85728 5.97187C11.4176 3.41152 15.5686 3.41097 18.1291 5.97118Z" fill="#009661"/>
</g>
<defs>
<clipPath id="clip0_1_396">
<rect width="24" height="24" fill="white" transform="matrix(-1 0 0 1 24 0)"/>
</clipPath>
</defs>
</svg>
